<svg width="457" height="457" viewBox="0 0 457 457" fill="none" xmlns="http://www.w3.org/2000/svg">
<path d="M228.5 457C354.697 457 457 354.697 457 228.5C457 102.303 354.697 0 228.5 0C102.303 0 0 102.303 0 228.5C0 354.697 102.303 457 228.5 457Z" fill="#5FCF80"/>
<path d="M222.592 112.468C257.8 112.468 285.988 120.46 307.156 136.444C328.54 152.212 339.232 181.264 339.232 223.6C339.232 265.288 328.864 294.664 308.128 311.728C287.392 328.576 260.5 337 227.452 337H160.06V112.468H222.592ZM213.196 151.024V298.444H230.692C248.188 298.444 261.472 293.044 270.544 282.244C279.616 271.228 284.152 251.68 284.152 223.6C284.152 204.376 281.884 189.472 277.348 178.888C272.812 168.304 266.656 161.068 258.88 157.18C251.104 153.076 241.492 151.024 230.044 151.024H213.196Z" fill="white"/>
</svg>
